<svg xmlns="http://www.w3.org/2000/svg" style="display: none;">
    <symbol id="add" fill="currentColor" viewBox="0 0 24 24">
        <path fill-rule="evenodd" clip-rule="evenodd" d="M10.5 22.5C10.5 22.8978 10.658 23.2794 10.9393 23.5607C11.2206 23.842 11.6022 24 12 24C12.3978 24 12.7794 23.842 13.0607 23.5607C13.342 23.2794 13.5 22.8978 13.5 22.5V13.5H22.5C22.8978 13.5 23.2794 13.342 23.5607 13.0607C23.842 12.7794 24 12.3978 24 12C24 11.6022 23.842 11.2206 23.5607 10.9393C23.2794 10.658 22.8978 10.5 22.5 10.5H13.5V1.5C13.5 1.10218 13.342 0.720644 13.0607 0.43934C12.7794 0.158035 12.3978 0 12 0C11.6022 0 11.2206 0.158035 10.9393 0.43934C10.658 0.720644 10.5 1.10218 10.5 1.5V10.5H1.5C1.10218 10.5 0.720644 10.658 0.43934 10.9393C0.158035 11.2206 0 11.6022 0 12C0 12.3978 0.158035 12.7794 0.43934 13.0607C0.720644 13.342 1.10218 13.5 1.5 13.5H10.5V22.5Z" fill="currentColor"/>
    </symbol>
    <symbol id="chevron-top" fill="currentColor" viewBox="0 0 7 4">
        <path d="M3.5 3.5L0.5 0.5" stroke="currentColor" stroke-linecap="round" stroke-linejoin="round"/>
        <path d="M6.5 0.5L3.5 3.5" stroke="currentColor" stroke-linecap="round" stroke-linejoin="round"/>
    </symbol>
    <symbol id="trash" fill="transparent" viewBox="0 0 18 18">
        <path d="M3.87414 7.61505C3.80712 6.74386 4.49595 6 5.36971 6H12.63C13.5039 6 14.1927 6.74385 14.1257 7.61505L13.6064 14.365C13.5463 15.1465 12.8946 15.75 12.1108 15.75H5.88894C5.10514 15.75 4.45348 15.1465 4.39336 14.365L3.87414 7.61505Z" stroke="currentColor"/>
        <path d="M14.625 3.75H3.375" stroke="currentColor" stroke-linecap="round"/>
        <path d="M7.5 2.25C7.5 1.83579 7.83577 1.5 8.25 1.5H9.75C10.1642 1.5 10.5 1.83579 10.5 2.25V3.75H7.5V2.25Z" stroke="currentColor"/>
        <path d="M10.5 9V12.75" stroke="currentColor" stroke-linecap="round"/>
        <path d="M7.5 9V12.75" stroke="currentColor" stroke-linecap="round"/>
    </symbol>
    <symbol id="search" fill="currentColor" viewBox="0 0 21 21">
        <path d="M20.7773 19.684L15.9056 14.812H15.8531C17.3547 13.0415 18.1136 10.7588 17.9709 8.44156C17.8282 6.12433 16.7951 3.95202 15.0876 2.37905C13.3801 0.806082 11.1306 -0.0456971 8.80958 0.0018919C6.48855 0.0494809 4.27583 0.992752 2.63427 2.63439C0.992706 4.27602 0.0494786 6.48885 0.00189181 8.80999C-0.045695 11.1311 0.806045 13.3808 2.37894 15.0883C3.95184 16.7958 6.12404 17.829 8.44117 17.9717C10.7583 18.1144 13.0408 17.3555 14.8113 15.8539C14.8113 15.8539 14.8113 15.8914 14.8113 15.9063L19.6831 20.7783C19.7527 20.8485 19.8356 20.9043 19.927 20.9424C20.0183 20.9804 20.1163 21 20.2152 21C20.3141 21 20.4121 20.9804 20.5034 20.9424C20.5948 20.9043 20.6777 20.8485 20.7473 20.7783C20.8242 20.7103 20.8862 20.6272 20.9296 20.5342C20.9731 20.4412 20.9969 20.3402 20.9997 20.2376C21.0025 20.135 20.9842 20.033 20.946 19.9377C20.9077 19.8425 20.8503 19.7561 20.7773 19.684ZM9.00276 16.4685C7.5204 16.4685 6.07133 16.0289 4.83879 15.2053C3.60625 14.3817 2.64561 13.2111 2.07833 11.8415C1.51106 10.4719 1.36263 8.96488 1.65183 7.51094C1.94102 6.05699 2.65485 4.72146 3.70303 3.67322C4.75122 2.62499 6.08669 1.91113 7.54057 1.62192C8.99445 1.33272 10.5014 1.48115 11.871 2.04845C13.2405 2.61575 14.411 3.57644 15.2346 4.80904C16.0581 6.04163 16.4977 7.49077 16.4977 8.9732C16.4977 9.95749 16.3038 10.9322 15.9272 11.8415C15.5505 12.7509 14.9985 13.5772 14.3025 14.2732C13.6065 14.9692 12.7803 15.5213 11.871 15.8979C10.9616 16.2746 9.98701 16.4685 9.00276 16.4685Z" fill="currentColor"/>
    </symbol>
    <symbol id="theme-dark" fill="currentColor" viewBox="0 0 22 22">
        <path fill-rule="evenodd" clip-rule="evenodd" d="M12.1576 1.15764C12.1576 0.518299 11.6394 0 11 0C10.3606 0 9.84235 0.518299 9.84235 1.15764V1.73887C9.84235 2.37822 10.3606 2.89651 11 2.89651C11.6394 2.89651 12.1576 2.37822 12.1576 1.73887V1.15764ZM18.7782 4.85893C19.2302 4.40683 19.2302 3.67386 18.7782 3.22177C18.3261 2.76969 17.5931 2.76969 17.141 3.22177L16.73 3.63282C16.2779 4.08492 16.2779 4.81789 16.73 5.26998C17.182 5.72206 17.915 5.72206 18.3671 5.26998L18.7782 4.85893ZM4.85889 3.22184C4.40681 2.76976 3.67383 2.76976 3.22175 3.22184C2.76967 3.67393 2.76967 4.4069 3.22175 4.859L3.63273 5.26998C4.08483 5.72206 4.8178 5.72206 5.26989 5.26998C5.72197 4.81789 5.72197 4.08492 5.26989 3.63282L4.85889 3.22184ZM1.15764 9.84235C0.518299 9.84235 0 10.3606 0 11C0 11.6394 0.518299 12.1576 1.15764 12.1576H1.73884C2.37819 12.1576 2.89648 11.6394 2.89648 11C2.89648 10.3606 2.37819 9.84235 1.73884 9.84235H1.15764ZM20.2611 9.84235C19.6217 9.84235 19.1035 10.3606 19.1035 11C19.1035 11.6394 19.6217 12.1576 20.2611 12.1576H20.8424C21.4817 12.1576 22 11.6394 22 11C22 10.3606 21.4817 9.84235 20.8424 9.84235H20.2611ZM5.26989 18.3672C5.72197 17.9151 5.72197 17.1821 5.26989 16.7301C4.8178 16.2779 4.08483 16.2779 3.63273 16.7301L3.22177 17.141C2.76968 17.5931 2.76968 18.3261 3.22176 18.7782C3.67385 19.2302 4.40682 19.2302 4.85892 18.7782L5.26989 18.3672ZM18.3671 16.7301C17.915 16.2779 17.182 16.2779 16.73 16.7301C16.2779 17.1821 16.2779 17.9151 16.73 18.3672L17.1409 18.7782C17.5931 19.2303 18.326 19.2303 18.7782 18.7782C19.2302 18.3261 19.2302 17.5932 18.7782 17.141L18.3671 16.7301ZM12.1576 20.2611C12.1576 19.6217 11.6394 19.1035 11 19.1035C10.3606 19.1035 9.84235 19.6217 9.84235 20.2611V20.8424C9.84235 21.4817 10.3606 22 11 22C11.6394 22 12.1576 21.4817 12.1576 20.8424V20.2611ZM6.36943 11C6.36943 8.4426 8.4426 6.36943 11 6.36943C13.5573 6.36943 15.6305 8.4426 15.6305 11C15.6305 13.5573 13.5573 15.6305 11 15.6305C8.4426 15.6305 6.36943 13.5573 6.36943 11ZM11 4.05415C7.1639 4.05415 4.05415 7.1639 4.05415 11C4.05415 14.8361 7.1639 17.9458 11 17.9458C14.8361 17.9458 17.9458 14.8361 17.9458 11C17.9458 7.1639 14.8361 4.05415 11 4.05415Z" fill="currentColor"/>
    </symbol>
    <symbol id="theme-light" fill="currentColor" viewBox="0 0 22 22">
        <path fill-rule="evenodd" clip-rule="evenodd" d="M11.1249 0.548798C11.3387 0.917354 11.321 1.3762 11.0791 1.72705C10.3455 2.79152 9.91599 4.08062 9.91599 5.47334C9.91599 9.12428 12.8757 12.084 16.5266 12.084C17.9194 12.084 19.2085 11.6545 20.2729 10.9208C20.6238 10.6791 21.0826 10.6613 21.4512 10.8751C21.8197 11.089 22.0319 11.4962 21.9961 11.9208C21.5191 17.567 16.7867 22 11.0178 22C4.93282 22 0 17.0672 0 10.9822C0 5.21328 4.43301 0.480873 10.0792 0.00392422C10.5038 -0.0319387 10.911 0.180242 11.1249 0.548798ZM8.17985 2.63461C4.70452 3.81573 2.20355 7.10732 2.20355 10.9822C2.20355 15.8502 6.14981 19.7964 11.0178 19.7964C14.8927 19.7964 18.1843 17.2955 19.3654 13.8202C18.4741 14.1232 17.5191 14.2875 16.5266 14.2875C11.6587 14.2875 7.71244 10.3413 7.71244 5.47334C7.71244 4.48086 7.87682 3.52582 8.17985 2.63461Z" fill="currentColor"/>
    </symbol>
    <symbol id="edit" fill="transparent" viewBox="0 0 18 18">
        <path d="M12.0091 9.32736L14.4018 6.93468L14.4025 6.93398C14.7324 6.60414 14.8974 6.43916 14.9592 6.24885C15.0136 6.08133 15.0136 5.90088 14.9592 5.73337C14.8973 5.54292 14.7321 5.37769 14.4018 5.04738L12.9506 3.59625C12.6217 3.26735 12.4569 3.10257 12.2669 3.04082C12.0993 2.98639 11.9189 2.98639 11.7514 3.04082C11.5612 3.10261 11.3962 3.26759 11.0669 3.59695L11.0654 3.59837L8.67272 5.99106L2 12.6637V16H5.33636L12.0091 9.32736ZM8.67272 5.99106L12.0091 9.32736" stroke="currentColor" stroke-linecap="round" stroke-linejoin="round"/>
    </symbol>
    <symbol id="check" fill="transparent" viewBox="0 0 15 15">
        <mask id="path-1-inside-1_18_421" fill="white">
            <path d="M4.9978 14.6488L1.72853e-05 9.74756L9.55927 3.20136e-07L14.5571 4.90124L4.9978 14.6488Z"/>
        </mask>
        <path d="M4.9978 14.6488L3.59745 16.0767L5.02539 17.4771L6.42574 16.0491L4.9978 14.6488ZM6.39816 13.2209L1.40037 8.31962L-1.40034 11.1755L3.59745 16.0767L6.39816 13.2209ZM13.1291 3.50089L3.56986 13.2484L6.42574 16.0491L15.985 6.30159L13.1291 3.50089Z" fill="currentColor" mask="url(#path-1-inside-1_18_421)"/>
    </symbol>
    <symbol id="checkbox" fill="transparent" viewBox="0 0 26 26">
        <rect x="0.5" y="0.5" width="25" height="25" rx="1.5" stroke="currentColor"/>
    </symbol>
</svg>
